<?xml version="1.0" encoding="UTF-8" standalone="no"?>
<!DOCTYPE svg PUBLIC "-//W3C//DTD SVG 1.1//EN"
 "http://www.w3.org/Graphics/SVG/1.1/DTD/svg11.dtd">
<!-- Generated by graphviz version 14.1.5 (20260411.2331)
 -->
<!-- Title: stream Pages: 1 -->
<svg width="555pt" height="327pt"
 viewBox="0.00 0.00 555.00 327.00" xmlns="http://www.w3.org/2000/svg" xmlns:xlink="http://www.w3.org/1999/xlink">
<g id="graph0" class="graph" transform="scale(1 1) rotate(0) translate(4 322.5)">
<title>stream</title>
<polygon fill="white" stroke="none" points="-4,4 -4,-322.5 551,-322.5 551,4 -4,4"/>
<!-- header -->
<g id="node1" class="node">
<title>header</title>
<polygon fill="#cfe2f3" stroke="black" points="127.5,-268.25 127.5,-318 419.5,-318 419.5,-268.25 127.5,-268.25"/>
<text xml:space="preserve" text-anchor="middle" x="273.5" y="-304.5" font-family="Helvetica,sans-Serif" font-size="10.00">HEADER (4+ bytes)</text>
<polyline fill="none" stroke="black" points="127.5,-298.75 419.5,-298.75"/>
<text xml:space="preserve" text-anchor="middle" x="157.25" y="-285.25" font-family="Helvetica,sans-Serif" font-size="10.00">version</text>
<text xml:space="preserve" text-anchor="middle" x="157.25" y="-274" font-family="Helvetica,sans-Serif" font-size="10.00">0x03 (1.3)</text>
<polyline fill="none" stroke="black" points="187,-268.25 187,-298.75"/>
<text xml:space="preserve" text-anchor="middle" x="229.5" y="-285.25" font-family="Helvetica,sans-Serif" font-size="10.00">public ID</text>
<text xml:space="preserve" text-anchor="middle" x="229.5" y="-274" font-family="Helvetica,sans-Serif" font-size="10.00">0x01 (unknown)</text>
<polyline fill="none" stroke="black" points="272,-268.25 272,-298.75"/>
<text xml:space="preserve" text-anchor="middle" x="309.25" y="-285.25" font-family="Helvetica,sans-Serif" font-size="10.00">charset</text>
<text xml:space="preserve" text-anchor="middle" x="309.25" y="-274" font-family="Helvetica,sans-Serif" font-size="10.00">0x6A (UTF&#45;8)</text>
<polyline fill="none" stroke="black" points="346.5,-268.25 346.5,-298.75"/>
<text xml:space="preserve" text-anchor="middle" x="383" y="-285.25" font-family="Helvetica,sans-Serif" font-size="10.00">string table</text>
<text xml:space="preserve" text-anchor="middle" x="383" y="-274" font-family="Helvetica,sans-Serif" font-size="10.00">0x00 (empty)</text>
</g>
<!-- body -->
<g id="node2" class="node">
<title>body</title>
<polygon fill="#d9ead3" stroke="black" points="5,-162 5,-211.75 542,-211.75 542,-162 5,-162"/>
<text xml:space="preserve" text-anchor="middle" x="273.5" y="-198.25" font-family="Helvetica,sans-Serif" font-size="10.00">BODY (one root element + descendants)</text>
<polyline fill="none" stroke="black" points="5,-192.5 542,-192.5"/>
<text xml:space="preserve" text-anchor="middle" x="61" y="-173.38" font-family="Helvetica,sans-Serif" font-size="10.00">SWITCH_PAGE 0x00</text>
<polyline fill="none" stroke="black" points="117,-162 117,-192.5"/>
<text xml:space="preserve" text-anchor="middle" x="146.38" y="-179" font-family="Helvetica,sans-Serif" font-size="10.00">page byte</text>
<text xml:space="preserve" text-anchor="middle" x="146.38" y="-167.75" font-family="Helvetica,sans-Serif" font-size="10.00">(0..24)</text>
<polyline fill="none" stroke="black" points="175.75,-162 175.75,-192.5"/>
<text xml:space="preserve" text-anchor="middle" x="206.62" y="-179" font-family="Helvetica,sans-Serif" font-size="10.00">TAG byte</text>
<text xml:space="preserve" text-anchor="middle" x="206.62" y="-167.75" font-family="Helvetica,sans-Serif" font-size="10.00">C&#45;flag + id</text>
<polyline fill="none" stroke="black" points="237.5,-162 237.5,-192.5"/>
<text xml:space="preserve" text-anchor="middle" x="274.38" y="-173.38" font-family="Helvetica,sans-Serif" font-size="10.00">... children ...</text>
<polyline fill="none" stroke="black" points="311.25,-162 311.25,-192.5"/>
<text xml:space="preserve" text-anchor="middle" x="342.12" y="-173.38" font-family="Helvetica,sans-Serif" font-size="10.00">END 0x01</text>
<polyline fill="none" stroke="black" points="373,-162 373,-192.5"/>
<text xml:space="preserve" text-anchor="middle" x="401.62" y="-173.38" font-family="Helvetica,sans-Serif" font-size="10.00">TAG byte</text>
<polyline fill="none" stroke="black" points="430.25,-162 430.25,-192.5"/>
<text xml:space="preserve" text-anchor="middle" x="442.75" y="-173.38" font-family="Helvetica,sans-Serif" font-size="10.00">...</text>
<polyline fill="none" stroke="black" points="455.25,-162 455.25,-192.5"/>
<text xml:space="preserve" text-anchor="middle" x="486.12" y="-173.38" font-family="Helvetica,sans-Serif" font-size="10.00">END 0x01</text>
<polyline fill="none" stroke="black" points="517,-162 517,-192.5"/>
<text xml:space="preserve" text-anchor="middle" x="529.5" y="-173.38" font-family="Helvetica,sans-Serif" font-size="10.00">...</text>
</g>
<!-- header&#45;&gt;body -->
<g id="edge1" class="edge">
<title>header&#45;&gt;body</title>
<path fill="none" stroke="black" d="M273.5,-267.95C273.5,-254.66 273.5,-237.93 273.5,-223.2"/>
<polygon fill="black" stroke="black" points="277,-223.44 273.5,-213.44 270,-223.44 277,-223.44"/>
<text xml:space="preserve" text-anchor="middle" x="297.12" y="-241.2" font-family="Helvetica,sans-Serif" font-size="9.00">byte stream</text>
<text xml:space="preserve" text-anchor="middle" x="297.12" y="-231.45" font-family="Helvetica,sans-Serif" font-size="9.00">continues</text>
</g>
<!-- tokens -->
<g id="node3" class="node">
<title>tokens</title>
<polygon fill="#fff2cc" stroke="black" stroke-dasharray="5,2" points="0,-79.25 0,-115.25 547,-115.25 547,-79.25 0,-79.25"/>
<text xml:space="preserve" text-anchor="middle" x="273.5" y="-102.7" font-family="Helvetica,sans-Serif" font-size="9.00">Global tokens (any active page)</text>
<polyline fill="none" stroke="black" stroke-dasharray="5,2" points="0,-97.5 547,-97.5"/>
<text xml:space="preserve" text-anchor="middle" x="54.12" y="-84.95" font-family="Helvetica,sans-Serif" font-size="9.00">0x00 SWITCH_PAGE \</text>
<polyline fill="none" stroke="black" stroke-dasharray="5,2" points="108.25,-79.75 108.25,-97.5"/>
<text xml:space="preserve" text-anchor="middle" x="139.5" y="-84.95" font-family="Helvetica,sans-Serif" font-size="9.00">0x01 END \</text>
<polyline fill="none" stroke="black" stroke-dasharray="5,2" points="170.75,-79.75 170.75,-97.5"/>
<text xml:space="preserve" text-anchor="middle" x="255.62" y="-84.95" font-family="Helvetica,sans-Serif" font-size="9.00">0x03 STR_I (NUL&#45;terminated UTF&#45;8) \</text>
<polyline fill="none" stroke="black" stroke-dasharray="5,2" points="340.5,-79.75 340.5,-97.5"/>
<text xml:space="preserve" text-anchor="middle" x="443.75" y="-84.95" font-family="Helvetica,sans-Serif" font-size="9.00">0xC3 OPAQUE (mb_u_int32 length, raw bytes)</text>
</g>
<!-- body&#45;&gt;tokens -->
<g id="edge2" class="edge">
<title>body&#45;&gt;tokens</title>
<path fill="none" stroke="#888888" stroke-dasharray="5,2" d="M273.5,-161.93C273.5,-147.24 273.5,-128.76 273.5,-115.5"/>
<text xml:space="preserve" text-anchor="middle" x="293" y="-134.95" font-family="Helvetica,sans-Serif" font-size="9.00">reference</text>
</g>
<!-- note -->
<g id="node4" class="node">
<title>note</title>
<polygon fill="none" stroke="black" points="354.25,-41.75 186.75,-41.75 186.75,0 360.25,0 360.25,-35.75 354.25,-41.75"/>
<polyline fill="none" stroke="black" points="354.25,-41.75 354.25,-35.75"/>
<polyline fill="none" stroke="black" points="360.25,-35.75 354.25,-35.75"/>
<text xml:space="preserve" text-anchor="middle" x="273.5" y="-28.25" font-family="Helvetica,sans-Serif" font-size="10.00">EAS uses a tiny subset of WBXML.</text>
<text xml:space="preserve" text-anchor="middle" x="273.5" y="-17" font-family="Helvetica,sans-Serif" font-size="10.00">No attributes, no LITERAL family,</text>
<text xml:space="preserve" text-anchor="middle" x="273.5" y="-5.75" font-family="Helvetica,sans-Serif" font-size="10.00">no string&#45;table refs, no PI.</text>
</g>
<!-- tokens&#45;&gt;note -->
<g id="edge3" class="edge">
<title>tokens&#45;&gt;note</title>
<path fill="none" stroke="#888888" stroke-dasharray="5,2" d="M273.5,-79C273.5,-68.01 273.5,-53.73 273.5,-42.2"/>
</g>
</g>
</svg>
