<?xml version="1.0" encoding="UTF-8" standalone="no"?>
<!DOCTYPE svg PUBLIC "-//W3C//DTD SVG 1.1//EN"
 "http://www.w3.org/Graphics/SVG/1.1/DTD/svg11.dtd">
<!-- Generated by graphviz version 14.1.5 (20260411.2331)
 -->
<!-- Title: tag_byte Pages: 1 -->
<svg width="974pt" height="311pt"
 viewBox="0.00 0.00 974.00 311.00" xmlns="http://www.w3.org/2000/svg" xmlns:xlink="http://www.w3.org/1999/xlink">
<g id="graph0" class="graph" transform="scale(1 1) rotate(0) translate(4 306.5)">
<title>tag_byte</title>
<polygon fill="white" stroke="none" points="-4,4 -4,-306.5 969.62,-306.5 969.62,4 -4,4"/>
<!-- bits -->
<g id="node1" class="node">
<title>bits</title>
<polygon fill="#cfe2f3" stroke="black" points="417.5,-148 417.5,-302 492.75,-302 492.75,-148 417.5,-148"/>
<text xml:space="preserve" text-anchor="middle" x="455.12" y="-288.5" font-family="Helvetica,sans-Serif" font-size="10.00">bit 7 \n A flag</text>
<polyline fill="none" stroke="black" points="417.5,-282.75 492.75,-282.75"/>
<text xml:space="preserve" text-anchor="middle" x="455.12" y="-269.25" font-family="Helvetica,sans-Serif" font-size="10.00">bit 6 \n C flag</text>
<polyline fill="none" stroke="black" points="417.5,-263.5 492.75,-263.5"/>
<text xml:space="preserve" text-anchor="middle" x="455.12" y="-250" font-family="Helvetica,sans-Serif" font-size="10.00">bit 5</text>
<polyline fill="none" stroke="black" points="417.5,-244.25 492.75,-244.25"/>
<text xml:space="preserve" text-anchor="middle" x="455.12" y="-230.75" font-family="Helvetica,sans-Serif" font-size="10.00">bit 4</text>
<polyline fill="none" stroke="black" points="417.5,-225 492.75,-225"/>
<text xml:space="preserve" text-anchor="middle" x="455.12" y="-211.5" font-family="Helvetica,sans-Serif" font-size="10.00">bit 3</text>
<polyline fill="none" stroke="black" points="417.5,-205.75 492.75,-205.75"/>
<text xml:space="preserve" text-anchor="middle" x="455.12" y="-192.25" font-family="Helvetica,sans-Serif" font-size="10.00">bit 2</text>
<polyline fill="none" stroke="black" points="417.5,-186.5 492.75,-186.5"/>
<text xml:space="preserve" text-anchor="middle" x="455.12" y="-173" font-family="Helvetica,sans-Serif" font-size="10.00">bit 1</text>
<polyline fill="none" stroke="black" points="417.5,-167.25 492.75,-167.25"/>
<text xml:space="preserve" text-anchor="middle" x="455.12" y="-153.75" font-family="Helvetica,sans-Serif" font-size="10.00">bit 0</text>
</g>
<!-- aflag -->
<g id="node2" class="node">
<title>aflag</title>
<polygon fill="none" stroke="black" points="306.25,-111.5 0,-111.5 0,-75.5 312.25,-75.5 312.25,-105.5 306.25,-111.5"/>
<polyline fill="none" stroke="black" points="306.25,-111.5 306.25,-105.5"/>
<polyline fill="none" stroke="black" points="312.25,-105.5 306.25,-105.5"/>
<text xml:space="preserve" text-anchor="middle" x="156.12" y="-89.83" font-family="Helvetica,sans-Serif" font-size="9.00">A flag (0x80)\nhas attributes\n— EAS never sets this;\ndecoder errors out</text>
</g>
<!-- bits&#45;&gt;aflag -->
<g id="edge1" class="edge">
<title>bits:b7&#45;&gt;aflag</title>
<path fill="none" stroke="black" d="M416.5,-292.38C297.55,-292.38 198.91,-159.86 167,-111.71"/>
</g>
<!-- cflag -->
<g id="node3" class="node">
<title>cflag</title>
<polygon fill="none" stroke="black" points="574.12,-111.5 330.12,-111.5 330.12,-75.5 580.12,-75.5 580.12,-105.5 574.12,-111.5"/>
<polyline fill="none" stroke="black" points="574.12,-111.5 574.12,-105.5"/>
<polyline fill="none" stroke="black" points="580.12,-105.5 574.12,-105.5"/>
<text xml:space="preserve" text-anchor="middle" x="455.12" y="-89.83" font-family="Helvetica,sans-Serif" font-size="9.00">C flag (0x40)\nhas content\nbody followed by END (0x01)</text>
</g>
<!-- bits&#45;&gt;cflag -->
<g id="edge2" class="edge">
<title>bits:b6&#45;&gt;cflag</title>
<path fill="none" stroke="black" d="M493.75,-273.12C549.59,-273.12 509.92,-200.63 492.75,-147.5 488.45,-134.19 479.48,-121.33 471.39,-111.62"/>
</g>
<!-- ident -->
<g id="node4" class="node">
<title>ident</title>
<polygon fill="none" stroke="black" points="959.62,-111.5 598.62,-111.5 598.62,-75.5 965.62,-75.5 965.62,-105.5 959.62,-111.5"/>
<polyline fill="none" stroke="black" points="959.62,-111.5 959.62,-105.5"/>
<polyline fill="none" stroke="black" points="965.62,-105.5 959.62,-105.5"/>
<text xml:space="preserve" text-anchor="middle" x="782.12" y="-89.83" font-family="Helvetica,sans-Serif" font-size="9.00">6&#45;bit tag identity (0x05..0x3F)\nlooked up against the active\ncode page in the Registry</text>
</g>
<!-- bits&#45;&gt;ident -->
<g id="edge3" class="edge">
<title>bits:b3&#45;&gt;ident</title>
<path fill="none" stroke="black" d="M493.75,-215.38C599.61,-215.38 711.52,-145.24 758.84,-111.82"/>
</g>
<!-- eg -->
<g id="node5" class="node">
<title>eg</title>
<path fill="#e7f3fe" stroke="black" d="M720.12,-0.5C720.12,-0.5 844.12,-0.5 844.12,-0.5 850.12,-0.5 856.12,-6.5 856.12,-12.5 856.12,-12.5 856.12,-27 856.12,-27 856.12,-33 850.12,-39 844.12,-39 844.12,-39 720.12,-39 720.12,-39 714.12,-39 708.12,-33 708.12,-27 708.12,-27 708.12,-12.5 708.12,-12.5 708.12,-6.5 714.12,-0.5 720.12,-0.5"/>
<text xml:space="preserve" text-anchor="middle" x="782.12" y="-25.5" font-family="Helvetica,sans-Serif" font-size="10.00">Example: 0x56\n= 0x40 \</text>
<polyline fill="none" stroke="black" points="708.12,-19.75 856.12,-19.75"/>
<text xml:space="preserve" text-anchor="middle" x="782.12" y="-6.25" font-family="Helvetica,sans-Serif" font-size="10.00">0x16\n= C&#45;flag + identity 0x16</text>
<polyline fill="none" stroke="black" points="708.12,-0.5 856.12,-0.5"/>
</g>
<!-- ident&#45;&gt;eg -->
<g id="edge4" class="edge">
<title>ident&#45;&gt;eg</title>
<path fill="none" stroke="#888888" stroke-dasharray="5,2" d="M782.12,-75.13C782.12,-64.35 782.12,-50.49 782.12,-39.47"/>
</g>
</g>
</svg>
