<?xml version="1.0" encoding="UTF-8" standalone="no"?>
<!DOCTYPE svg PUBLIC "-//W3C//DTD SVG 1.1//EN"
 "http://www.w3.org/Graphics/SVG/1.1/DTD/svg11.dtd">
<!-- Generated by graphviz version 14.1.5 (20260411.2331)
 -->
<!-- Title: auth_picker Pages: 1 -->
<svg width="1068pt" height="412pt"
 viewBox="0.00 0.00 1068.00 412.00" xmlns="http://www.w3.org/2000/svg" xmlns:xlink="http://www.w3.org/1999/xlink">
<g id="graph0" class="graph" transform="scale(1 1) rotate(0) translate(4 408)">
<title>auth_picker</title>
<polygon fill="white" stroke="none" points="-4,4 -4,-408 1064.12,-408 1064.12,4 -4,4"/>
<!-- q0 -->
<g id="node1" class="node">
<title>q0</title>
<path fill="#fff2cc" stroke="black" d="M620.88,-402.24C620.88,-402.24 523.22,-387.76 523.22,-387.76 517.29,-386.88 517.29,-385.12 523.22,-384.24 523.22,-384.24 620.88,-369.76 620.88,-369.76 626.81,-368.88 638.69,-368.88 644.62,-369.76 644.62,-369.76 742.28,-384.24 742.28,-384.24 748.21,-385.12 748.21,-386.88 742.28,-387.76 742.28,-387.76 644.62,-402.24 644.62,-402.24 638.69,-403.12 626.81,-403.12 620.88,-402.24"/>
<text xml:space="preserve" text-anchor="middle" x="632.75" y="-381.55" font-family="Helvetica,sans-Serif" font-size="11.00">Where do credentials live?</text>
</g>
<!-- q2 -->
<g id="node3" class="node">
<title>q2</title>
<path fill="#fff2cc" stroke="black" d="M621.37,-316.94C621.37,-316.94 548.63,-292.56 548.63,-292.56 542.94,-290.66 542.94,-286.84 548.63,-284.94 548.63,-284.94 621.37,-260.56 621.37,-260.56 627.06,-258.66 638.44,-258.66 644.13,-260.56 644.13,-260.56 716.87,-284.94 716.87,-284.94 722.56,-286.84 722.56,-290.66 716.87,-292.56 716.87,-292.56 644.13,-316.94 644.13,-316.94 638.44,-318.84 627.06,-318.84 621.37,-316.94"/>
<text xml:space="preserve" text-anchor="middle" x="632.75" y="-290.3" font-family="Helvetica,sans-Serif" font-size="11.00">Server requires</text>
<text xml:space="preserve" text-anchor="middle" x="632.75" y="-278.3" font-family="Helvetica,sans-Serif" font-size="11.00">client certificate?</text>
</g>
<!-- q0&#45;&gt;q2 -->
<g id="edge1" class="edge">
<title>q0&#45;&gt;q2</title>
<path fill="none" stroke="black" d="M632.75,-367.53C632.75,-357.58 632.75,-344.64 632.75,-332.19"/>
<polygon fill="black" stroke="black" points="636.25,-332.5 632.75,-322.5 629.25,-332.5 636.25,-332.5"/>
<text xml:space="preserve" text-anchor="middle" x="641" y="-340.5" font-family="Helvetica,sans-Serif" font-size="10.00">cert</text>
</g>
<!-- q1 -->
<g id="node2" class="node">
<title>q1</title>
<path fill="#fff2cc" stroke="black" d="M497.91,-191.05C497.91,-191.05 412.31,-176.95 412.31,-176.95 406.39,-175.98 406.39,-174.02 412.31,-173.05 412.31,-173.05 497.91,-158.95 497.91,-158.95 503.83,-157.98 515.67,-157.98 521.59,-158.95 521.59,-158.95 607.19,-173.05 607.19,-173.05 613.11,-174.02 613.11,-175.98 607.19,-176.95 607.19,-176.95 521.59,-191.05 521.59,-191.05 515.67,-192.02 503.83,-192.02 497.91,-191.05"/>
<text xml:space="preserve" text-anchor="middle" x="509.75" y="-170.55" font-family="Helvetica,sans-Serif" font-size="11.00">Static, set per process?</text>
</g>
<!-- basic -->
<g id="node4" class="node">
<title>basic</title>
<path fill="#d9ead3" stroke="black" d="M125.5,-75.5C125.5,-75.5 12,-75.5 12,-75.5 6,-75.5 0,-69.5 0,-63.5 0,-63.5 0,-18.5 0,-18.5 0,-12.5 6,-6.5 12,-6.5 12,-6.5 125.5,-6.5 125.5,-6.5 131.5,-6.5 137.5,-12.5 137.5,-18.5 137.5,-18.5 137.5,-63.5 137.5,-63.5 137.5,-69.5 131.5,-75.5 125.5,-75.5"/>
<text xml:space="preserve" text-anchor="middle" x="68.75" y="-61.05" font-family="Helvetica,sans-Serif" font-size="11.00">Basic</text>
<text xml:space="preserve" text-anchor="middle" x="68.75" y="-36.05" font-family="Helvetica,sans-Serif" font-size="11.00">Config.Username = &quot;u&quot;</text>
<text xml:space="preserve" text-anchor="middle" x="68.75" y="-24.05" font-family="Helvetica,sans-Serif" font-size="11.00">Config.Password = &quot;…&quot;</text>
<text xml:space="preserve" text-anchor="middle" x="68.75" y="-12.05" font-family="Helvetica,sans-Serif" font-size="11.00">(default; pre&#45;built header)</text>
</g>
<!-- q1&#45;&gt;basic -->
<g id="edge4" class="edge">
<title>q1&#45;&gt;basic</title>
<path fill="none" stroke="black" d="M456.17,-165.35C404.84,-156.53 325.43,-141.45 258,-122.5 206.94,-108.15 194.33,-103.27 145.75,-82 144.65,-81.52 143.54,-81.02 142.42,-80.52"/>
<polygon fill="black" stroke="black" points="144.22,-77.5 133.67,-76.48 141.28,-83.85 144.22,-77.5"/>
<text xml:space="preserve" text-anchor="middle" x="306.38" y="-107.38" font-family="Helvetica,sans-Serif" font-size="10.00">username + password</text>
</g>
<!-- bearer -->
<g id="node5" class="node">
<title>bearer</title>
<path fill="#d9ead3" stroke="black" d="M372.25,-69.5C372.25,-69.5 167.25,-69.5 167.25,-69.5 161.25,-69.5 155.25,-63.5 155.25,-57.5 155.25,-57.5 155.25,-24.5 155.25,-24.5 155.25,-18.5 161.25,-12.5 167.25,-12.5 167.25,-12.5 372.25,-12.5 372.25,-12.5 378.25,-12.5 384.25,-18.5 384.25,-24.5 384.25,-24.5 384.25,-57.5 384.25,-57.5 384.25,-63.5 378.25,-69.5 372.25,-69.5"/>
<text xml:space="preserve" text-anchor="middle" x="269.75" y="-55.05" font-family="Helvetica,sans-Serif" font-size="11.00">Bearer (OAuth)</text>
<text xml:space="preserve" text-anchor="middle" x="269.75" y="-30.05" font-family="Helvetica,sans-Serif" font-size="11.00">Config.AuthHeader = func(ctx) (string, error)</text>
<text xml:space="preserve" text-anchor="middle" x="269.75" y="-18.05" font-family="Helvetica,sans-Serif" font-size="11.00">Config.RetryOn401 = true</text>
</g>
<!-- q1&#45;&gt;bearer -->
<g id="edge5" class="edge">
<title>q1&#45;&gt;bearer</title>
<path fill="none" stroke="black" d="M478.44,-161.77C454.6,-152.08 421.24,-137.68 393.25,-122.5 367.76,-108.67 340.64,-91.32 318.32,-76.26"/>
<polygon fill="black" stroke="black" points="320.56,-73.55 310.32,-70.82 316.62,-79.34 320.56,-73.55"/>
<text xml:space="preserve" text-anchor="middle" x="449.5" y="-113" font-family="Helvetica,sans-Serif" font-size="10.00">short&#45;lived token</text>
<text xml:space="preserve" text-anchor="middle" x="449.5" y="-101.75" font-family="Helvetica,sans-Serif" font-size="10.00">(refreshes during session)</text>
</g>
<!-- ntlm -->
<g id="node6" class="node">
<title>ntlm</title>
<path fill="#d9ead3" stroke="black" d="M605.5,-82C605.5,-82 414,-82 414,-82 408,-82 402,-76 402,-70 402,-70 402,-12 402,-12 402,-6 408,0 414,0 414,0 605.5,0 605.5,0 611.5,0 617.5,-6 617.5,-12 617.5,-12 617.5,-70 617.5,-70 617.5,-76 611.5,-82 605.5,-82"/>
<text xml:space="preserve" text-anchor="middle" x="509.75" y="-67.55" font-family="Helvetica,sans-Serif" font-size="11.00">NTLM (legacy on&#45;prem)</text>
<text xml:space="preserve" text-anchor="middle" x="509.75" y="-42.55" font-family="Helvetica,sans-Serif" font-size="11.00">cfg.HTTPClient.Transport =</text>
<text xml:space="preserve" text-anchor="middle" x="509.75" y="-30.55" font-family="Helvetica,sans-Serif" font-size="11.00"> &#160;ntlmssp.Negotiator{RoundTripper: base}</text>
<text xml:space="preserve" text-anchor="middle" x="509.75" y="-5.55" font-family="Helvetica,sans-Serif" font-size="11.00">Username in DOMAIN\\user form</text>
</g>
<!-- q1&#45;&gt;ntlm -->
<g id="edge6" class="edge">
<title>q1&#45;&gt;ntlm</title>
<path fill="none" stroke="black" d="M509.75,-156.74C509.75,-140.74 509.75,-116.08 509.75,-93.73"/>
<polygon fill="black" stroke="black" points="513.25,-93.82 509.75,-83.82 506.25,-93.82 513.25,-93.82"/>
<text xml:space="preserve" text-anchor="middle" x="566" y="-113" font-family="Helvetica,sans-Serif" font-size="10.00">Windows domain account</text>
<text xml:space="preserve" text-anchor="middle" x="566" y="-101.75" font-family="Helvetica,sans-Serif" font-size="10.00">(legacy Exchange / IIS)</text>
</g>
<!-- spnego -->
<g id="node7" class="node">
<title>spnego</title>
<path fill="#d9ead3" stroke="black" d="M803.5,-82C803.5,-82 648,-82 648,-82 642,-82 636,-76 636,-70 636,-70 636,-12 636,-12 636,-6 642,0 648,0 648,0 803.5,0 803.5,0 809.5,0 815.5,-6 815.5,-12 815.5,-12 815.5,-70 815.5,-70 815.5,-76 809.5,-82 803.5,-82"/>
<text xml:space="preserve" text-anchor="middle" x="725.75" y="-67.55" font-family="Helvetica,sans-Serif" font-size="11.00">Negotiate / SPNEGO (Kerberos)</text>
<text xml:space="preserve" text-anchor="middle" x="725.75" y="-42.55" font-family="Helvetica,sans-Serif" font-size="11.00">cfg.HTTPClient.Transport =</text>
<text xml:space="preserve" text-anchor="middle" x="725.75" y="-30.55" font-family="Helvetica,sans-Serif" font-size="11.00"> &#160;spnegoRoundTripper{client, spn}</text>
<text xml:space="preserve" text-anchor="middle" x="725.75" y="-5.55" font-family="Helvetica,sans-Serif" font-size="11.00">Uses keytab or kinit ccache</text>
</g>
<!-- q1&#45;&gt;spnego -->
<g id="edge7" class="edge">
<title>q1&#45;&gt;spnego</title>
<path fill="none" stroke="black" d="M543.21,-162.04C567.27,-152.79 600.05,-138.82 626.75,-122.5 642.4,-112.93 658.29,-101.13 672.62,-89.54"/>
<polygon fill="black" stroke="black" points="674.66,-92.4 680.15,-83.34 670.21,-86.99 674.66,-92.4"/>
<text xml:space="preserve" text-anchor="middle" x="692.2" y="-113" font-family="Helvetica,sans-Serif" font-size="10.00">Kerberos ticket</text>
<text xml:space="preserve" text-anchor="middle" x="692.2" y="-101.75" font-family="Helvetica,sans-Serif" font-size="10.00">(AD&#45;joined env)</text>
</g>
<!-- q2&#45;&gt;q1 -->
<g id="edge3" class="edge">
<title>q2&#45;&gt;q1</title>
<path fill="none" stroke="black" d="M607.56,-264.87C586.16,-245.42 555.62,-217.67 534.38,-198.38"/>
<polygon fill="black" stroke="black" points="536.77,-195.82 527.02,-191.69 532.07,-201 536.77,-195.82"/>
<text xml:space="preserve" text-anchor="middle" x="583.86" y="-229.25" font-family="Helvetica,sans-Serif" font-size="10.00">no</text>
</g>
<!-- mtls -->
<g id="node8" class="node">
<title>mtls</title>
<path fill="#d9ead3" stroke="black" d="M959.12,-209.5C959.12,-209.5 744.38,-209.5 744.38,-209.5 738.38,-209.5 732.38,-203.5 732.38,-197.5 732.38,-197.5 732.38,-152.5 732.38,-152.5 732.38,-146.5 738.38,-140.5 744.38,-140.5 744.38,-140.5 959.12,-140.5 959.12,-140.5 965.12,-140.5 971.12,-146.5 971.12,-152.5 971.12,-152.5 971.12,-197.5 971.12,-197.5 971.12,-203.5 965.12,-209.5 959.12,-209.5"/>
<text xml:space="preserve" text-anchor="middle" x="851.75" y="-195.05" font-family="Helvetica,sans-Serif" font-size="11.00">mTLS (client cert)</text>
<text xml:space="preserve" text-anchor="middle" x="851.75" y="-170.05" font-family="Helvetica,sans-Serif" font-size="11.00">cfg.HTTPClient.Transport =</text>
<text xml:space="preserve" text-anchor="middle" x="851.75" y="-158.05" font-family="Helvetica,sans-Serif" font-size="11.00"> &#160;&amp;http.Transport{TLSClientConfig:</text>
<text xml:space="preserve" text-anchor="middle" x="851.75" y="-146.05" font-family="Helvetica,sans-Serif" font-size="11.00"> &#160;&#160;&#160;&amp;tls.Config{Certificates: []tls.Certificate{…}}}</text>
</g>
<!-- q2&#45;&gt;mtls -->
<g id="edge2" class="edge">
<title>q2&#45;&gt;mtls</title>
<path fill="none" stroke="black" d="M669.9,-268.79C698.68,-254.11 739.53,-233.26 775.22,-215.05"/>
<polygon fill="black" stroke="black" points="776.47,-218.34 783.79,-210.68 773.29,-212.11 776.47,-218.34"/>
<text xml:space="preserve" text-anchor="middle" x="756.69" y="-229.25" font-family="Helvetica,sans-Serif" font-size="10.00">yes</text>
</g>
<!-- note -->
<g id="node9" class="node">
<title>note</title>
<polygon fill="#fff2cc" stroke="black" points="1054.12,-61.88 833.38,-61.88 833.38,-20.12 1060.12,-20.12 1060.12,-55.88 1054.12,-61.88"/>
<polyline fill="none" stroke="black" points="1054.12,-61.88 1054.12,-55.88"/>
<polyline fill="none" stroke="black" points="1060.12,-55.88 1054.12,-55.88"/>
<text xml:space="preserve" text-anchor="middle" x="946.75" y="-48.38" font-family="Helvetica,sans-Serif" font-size="10.00">mTLS combines with any Authorization scheme:</text>
<text xml:space="preserve" text-anchor="middle" x="946.75" y="-37.12" font-family="Helvetica,sans-Serif" font-size="10.00">the TLS handshake presents a cert; the</text>
<text xml:space="preserve" text-anchor="middle" x="946.75" y="-25.88" font-family="Helvetica,sans-Serif" font-size="10.00">HTTP layer still does Basic/Bearer/etc.</text>
</g>
<!-- mtls&#45;&gt;note -->
<g id="edge8" class="edge">
<title>mtls&#45;&gt;note</title>
<path fill="none" stroke="#888888" stroke-dasharray="5,2" d="M876.21,-140.01C893.92,-115.41 917.25,-82.99 932.13,-62.31"/>
</g>
</g>
</svg>
