<?xml version="1.0" encoding="UTF-8" standalone="no"?>
<!DOCTYPE svg PUBLIC "-//W3C//DTD SVG 1.1//EN"
 "http://www.w3.org/Graphics/SVG/1.1/DTD/svg11.dtd">
<!-- Generated by graphviz version 14.1.5 (20260411.2331)
 -->
<!-- Title: provision Pages: 1 -->
<svg width="719pt" height="229pt"
 viewBox="0.00 0.00 719.00 229.00" xmlns="http://www.w3.org/2000/svg" xmlns:xlink="http://www.w3.org/1999/xlink">
<g id="graph0" class="graph" transform="scale(1 1) rotate(0) translate(4 225.25)">
<title>provision</title>
<polygon fill="white" stroke="none" points="-4,4 -4,-225.25 715.37,-225.25 715.37,4 -4,4"/>
<g id="clust1" class="cluster">
<title>cluster_client</title>
<polygon fill="white" stroke="#cccccc" points="209.49,-132.5 209.49,-213.25 601.49,-213.25 601.49,-132.5 209.49,-132.5"/>
<text xml:space="preserve" text-anchor="middle" x="265.49" y="-197.85" font-family="Helvetica,sans-Serif" font-size="12.00">Client (eas.Client)</text>
</g>
<g id="clust2" class="cluster">
<title>cluster_server</title>
<polygon fill="white" stroke="#cccccc" points="187.49,-8 187.49,-80.75 423.49,-80.75 423.49,-8 187.49,-8"/>
<text xml:space="preserve" text-anchor="middle" x="225.87" y="-65.35" font-family="Helvetica,sans-Serif" font-size="12.00">EAS server</text>
</g>
<!-- c0 -->
<g id="node1" class="node">
<title>c0</title>
<path fill="#cfe2f3" stroke="black" d="M273.37,-180.5C273.37,-180.5 229.62,-180.5 229.62,-180.5 223.62,-180.5 217.62,-174.5 217.62,-168.5 217.62,-168.5 217.62,-156.5 217.62,-156.5 217.62,-150.5 223.62,-144.5 229.62,-144.5 229.62,-144.5 273.37,-144.5 273.37,-144.5 279.37,-144.5 285.37,-150.5 285.37,-156.5 285.37,-156.5 285.37,-168.5 285.37,-168.5 285.37,-174.5 279.37,-180.5 273.37,-180.5"/>
<text xml:space="preserve" text-anchor="middle" x="251.49" y="-158.05" font-family="Helvetica,sans-Serif" font-size="11.00">Provision()</text>
</g>
<!-- s0 -->
<g id="node4" class="node">
<title>s0</title>
<path fill="#d9ead3" stroke="black" d="M286.99,-52C286.99,-52 207.99,-52 207.99,-52 201.99,-52 195.99,-46 195.99,-40 195.99,-40 195.99,-28 195.99,-28 195.99,-22 201.99,-16 207.99,-16 207.99,-16 286.99,-16 286.99,-16 292.99,-16 298.99,-22 298.99,-28 298.99,-28 298.99,-40 298.99,-40 298.99,-46 292.99,-52 286.99,-52"/>
<text xml:space="preserve" text-anchor="middle" x="247.49" y="-35.55" font-family="Helvetica,sans-Serif" font-size="11.00">evaluate request</text>
<text xml:space="preserve" text-anchor="middle" x="247.49" y="-23.55" font-family="Helvetica,sans-Serif" font-size="11.00">(empty PolicyKey)</text>
</g>
<!-- c0&#45;&gt;s0 -->
<g id="edge1" class="edge">
<title>c0&#45;&gt;s0</title>
<path fill="none" stroke="black" d="M217.48,-161.17C157.62,-159.78 37.32,-153.16 11.24,-122.5 -39.89,-62.4 98.36,-43.55 184.47,-37.66"/>
<polygon fill="black" stroke="black" points="184.47,-41.17 194.22,-37.04 184.02,-34.18 184.47,-41.17"/>
<text xml:space="preserve" text-anchor="middle" x="109.87" y="-113" font-family="Helvetica,sans-Serif" font-size="10.00">POST Provision</text>
<text xml:space="preserve" text-anchor="middle" x="109.87" y="-101.75" font-family="Helvetica,sans-Serif" font-size="10.00"> PolicyKey=&quot;0&quot;</text>
<text xml:space="preserve" text-anchor="middle" x="109.87" y="-90.5" font-family="Helvetica,sans-Serif" font-size="10.00"> Policy{Type=MS&#45;EAS&#45;Provisioning&#45;WBXML}</text>
</g>
<!-- c1 -->
<g id="node2" class="node">
<title>c1</title>
<path fill="#cfe2f3" stroke="black" d="M415.49,-180.5C415.49,-180.5 315.49,-180.5 315.49,-180.5 309.49,-180.5 303.49,-174.5 303.49,-168.5 303.49,-168.5 303.49,-156.5 303.49,-156.5 303.49,-150.5 309.49,-144.5 315.49,-144.5 315.49,-144.5 415.49,-144.5 415.49,-144.5 421.49,-144.5 427.49,-150.5 427.49,-156.5 427.49,-156.5 427.49,-168.5 427.49,-168.5 427.49,-174.5 421.49,-180.5 415.49,-180.5"/>
<text xml:space="preserve" text-anchor="middle" x="365.49" y="-164.05" font-family="Helvetica,sans-Serif" font-size="11.00">persist TempPolicyKey</text>
<text xml:space="preserve" text-anchor="middle" x="365.49" y="-152.05" font-family="Helvetica,sans-Serif" font-size="11.00">via StateStore</text>
</g>
<!-- s1 -->
<g id="node5" class="node">
<title>s1</title>
<path fill="#d9ead3" stroke="black" d="M403.74,-52C403.74,-52 329.24,-52 329.24,-52 323.24,-52 317.24,-46 317.24,-40 317.24,-40 317.24,-28 317.24,-28 317.24,-22 323.24,-16 329.24,-16 329.24,-16 403.74,-16 403.74,-16 409.74,-16 415.74,-22 415.74,-28 415.74,-28 415.74,-40 415.74,-40 415.74,-46 409.74,-52 403.74,-52"/>
<text xml:space="preserve" text-anchor="middle" x="366.49" y="-35.55" font-family="Helvetica,sans-Serif" font-size="11.00">apply policy ack</text>
<text xml:space="preserve" text-anchor="middle" x="366.49" y="-23.55" font-family="Helvetica,sans-Serif" font-size="11.00">(client confirmed)</text>
</g>
<!-- c1&#45;&gt;s1 -->
<g id="edge3" class="edge">
<title>c1&#45;&gt;s1</title>
<path fill="none" stroke="black" d="M365.63,-144.18C365.79,-123.36 366.07,-88.14 366.27,-63.34"/>
<polygon fill="black" stroke="black" points="369.76,-63.66 366.34,-53.63 362.76,-63.6 369.76,-63.66"/>
<text xml:space="preserve" text-anchor="middle" x="423.05" y="-113" font-family="Helvetica,sans-Serif" font-size="10.00">POST Provision</text>
<text xml:space="preserve" text-anchor="middle" x="423.05" y="-101.75" font-family="Helvetica,sans-Serif" font-size="10.00"> PolicyKey=Temp</text>
<text xml:space="preserve" text-anchor="middle" x="423.05" y="-90.5" font-family="Helvetica,sans-Serif" font-size="10.00"> Status=1 (acknowledged)</text>
</g>
<!-- c2 -->
<g id="node3" class="node">
<title>c2</title>
<path fill="#cfe2f3" stroke="black" d="M581.49,-184.5C581.49,-184.5 457.49,-184.5 457.49,-184.5 451.49,-184.5 445.49,-178.5 445.49,-172.5 445.49,-172.5 445.49,-152.5 445.49,-152.5 445.49,-146.5 451.49,-140.5 457.49,-140.5 457.49,-140.5 581.49,-140.5 581.49,-140.5 587.49,-140.5 593.49,-146.5 593.49,-152.5 593.49,-152.5 593.49,-172.5 593.49,-172.5 593.49,-178.5 587.49,-184.5 581.49,-184.5"/>
<text xml:space="preserve" text-anchor="middle" x="519.49" y="-170.05" font-family="Helvetica,sans-Serif" font-size="11.00">persist FinalPolicyKey;</text>
<text xml:space="preserve" text-anchor="middle" x="519.49" y="-158.05" font-family="Helvetica,sans-Serif" font-size="11.00">use on every subsequent</text>
<text xml:space="preserve" text-anchor="middle" x="519.49" y="-146.05" font-family="Helvetica,sans-Serif" font-size="11.00">request as X&#45;MS&#45;PolicyKey</text>
</g>
<!-- note -->
<g id="node6" class="node">
<title>note</title>
<polygon fill="#fff2cc" stroke="black" points="705.37,-62 493.62,-62 493.62,-6 711.37,-6 711.37,-56 705.37,-62"/>
<polyline fill="none" stroke="black" points="705.37,-62 705.37,-56"/>
<polyline fill="none" stroke="black" points="711.37,-56 705.37,-56"/>
<text xml:space="preserve" text-anchor="middle" x="602.49" y="-47.55" font-family="Helvetica,sans-Serif" font-size="11.00">On HTTP 449 (Retry With) from any later</text>
<text xml:space="preserve" text-anchor="middle" x="602.49" y="-35.55" font-family="Helvetica,sans-Serif" font-size="11.00">command, postRaw re&#45;runs Provision and</text>
<text xml:space="preserve" text-anchor="middle" x="602.49" y="-23.55" font-family="Helvetica,sans-Serif" font-size="11.00">retries the original request once.</text>
<text xml:space="preserve" text-anchor="middle" x="602.49" y="-11.55" font-family="Helvetica,sans-Serif" font-size="11.00">MS&#45;ASPROV §3.1.5.2.</text>
</g>
<!-- c2&#45;&gt;note -->
<g id="edge5" class="edge">
<title>c2&#45;&gt;note</title>
<path fill="none" stroke="#888888" stroke-dasharray="5,2" d="M570.26,-140.08C577.27,-135.21 583.7,-129.39 588.49,-122.5 600.7,-104.94 603.78,-80.65 604.04,-62.12"/>
</g>
<!-- s0&#45;&gt;c1 -->
<g id="edge2" class="edge">
<title>s0&#45;&gt;c1</title>
<path fill="none" stroke="black" d="M237.26,-52.27C227.27,-71.64 215.8,-102.9 232.49,-122.5 241.54,-133.12 281.05,-128.73 294.49,-132.5 301.81,-134.56 309.4,-137.14 316.77,-139.91"/>
<polygon fill="black" stroke="black" points="315.36,-143.12 325.95,-143.51 317.92,-136.6 315.36,-143.12"/>
<text xml:space="preserve" text-anchor="middle" x="296.99" y="-107.38" font-family="Helvetica,sans-Serif" font-size="10.00">200 OK</text>
<text xml:space="preserve" text-anchor="middle" x="296.99" y="-96.12" font-family="Helvetica,sans-Serif" font-size="10.00"> TempPolicyKey + Policy doc</text>
</g>
<!-- s1&#45;&gt;c2 -->
<g id="edge4" class="edge">
<title>s1&#45;&gt;c2</title>
<path fill="none" stroke="black" d="M416.14,-48.92C439.18,-57.4 465.59,-70.24 484.49,-88.75 495.87,-99.89 504.04,-115.48 509.61,-129.36"/>
<polygon fill="black" stroke="black" points="506.27,-130.42 513.01,-138.6 512.84,-128 506.27,-130.42"/>
<text xml:space="preserve" text-anchor="middle" x="540.3" y="-107.38" font-family="Helvetica,sans-Serif" font-size="10.00">200 OK</text>
<text xml:space="preserve" text-anchor="middle" x="540.3" y="-96.12" font-family="Helvetica,sans-Serif" font-size="10.00"> FinalPolicyKey</text>
</g>
</g>
</svg>
