<?xml version="1.0" encoding="UTF-8" standalone="no"?>
<!DOCTYPE svg PUBLIC "-//W3C//DTD SVG 1.1//EN"
 "http://www.w3.org/Graphics/SVG/1.1/DTD/svg11.dtd">
<!-- Generated by graphviz version 14.1.5 (20260411.2331)
 -->
<!-- Title: sync_state Pages: 1 -->
<svg width="999pt" height="134pt"
 viewBox="0.00 0.00 999.00 134.00" xmlns="http://www.w3.org/2000/svg" xmlns:xlink="http://www.w3.org/1999/xlink">
<g id="graph0" class="graph" transform="scale(1 1) rotate(0) translate(4 130.36)">
<title>sync_state</title>
<polygon fill="white" stroke="none" points="-4,4 -4,-130.36 994.8,-130.36 994.8,4 -4,4"/>
<!-- nokey -->
<g id="node1" class="node">
<title>nokey</title>
<ellipse fill="#fce5cd" stroke="black" cx="65.41" cy="-61.25" rx="65.41" ry="22.63"/>
<text xml:space="preserve" text-anchor="middle" x="65.41" y="-62.8" font-family="Helvetica,sans-Serif" font-size="11.00">NoKey</text>
<text xml:space="preserve" text-anchor="middle" x="65.41" y="-50.8" font-family="Helvetica,sans-Serif" font-size="11.00">(SyncKey = &quot;0&quot;)</text>
</g>
<!-- bootstrapped -->
<g id="node2" class="node">
<title>bootstrapped</title>
<ellipse fill="#cfe2f3" stroke="black" cx="314.3" cy="-95.25" rx="75.48" ry="31.11"/>
<text xml:space="preserve" text-anchor="middle" x="314.3" y="-102.8" font-family="Helvetica,sans-Serif" font-size="11.00">Bootstrapped</text>
<text xml:space="preserve" text-anchor="middle" x="314.3" y="-90.8" font-family="Helvetica,sans-Serif" font-size="11.00">(server&#45;issued key,</text>
<text xml:space="preserve" text-anchor="middle" x="314.3" y="-78.8" font-family="Helvetica,sans-Serif" font-size="11.00">no items yet)</text>
</g>
<!-- nokey&#45;&gt;bootstrapped -->
<g id="edge1" class="edge">
<title>nokey&#45;&gt;bootstrapped</title>
<path fill="none" stroke="black" d="M126.26,-70.05C133.85,-71.14 141.51,-72.23 148.81,-73.25 175.53,-76.98 204.7,-80.93 230.97,-84.43"/>
<polygon fill="black" stroke="black" points="230.15,-87.85 240.53,-85.7 231.08,-80.91 230.15,-87.85"/>
<text xml:space="preserve" text-anchor="middle" x="184.81" y="-106.75" font-family="Helvetica,sans-Serif" font-size="10.00">Sync(key=&quot;0&quot;)</text>
<text xml:space="preserve" text-anchor="middle" x="184.81" y="-95.5" font-family="Helvetica,sans-Serif" font-size="10.00">returns NewKey,</text>
<text xml:space="preserve" text-anchor="middle" x="184.81" y="-84.25" font-family="Helvetica,sans-Serif" font-size="10.00">0 items</text>
</g>
<!-- bootstrapped&#45;&gt;nokey -->
<g id="edge5" class="edge">
<title>bootstrapped&#45;&gt;nokey</title>
<path fill="none" stroke="#cc0000" stroke-dasharray="5,2" d="M262.89,-72.25C249.49,-67.2 234.84,-62.58 220.81,-60 194.75,-55.2 165.79,-54.3 140.05,-54.99"/>
<polygon fill="#cc0000" stroke="#cc0000" points="140.24,-51.48 130.37,-55.34 140.49,-58.48 140.24,-51.48"/>
<text xml:space="preserve" text-anchor="middle" x="184.81" y="-61.75" font-family="Helvetica,sans-Serif" font-size="10.00" fill="#cc0000">Status=3</text>
</g>
<!-- synced -->
<g id="node3" class="node">
<title>synced</title>
<ellipse fill="#d9ead3" stroke="black" cx="574.17" cy="-27.25" rx="60.63" ry="22.63"/>
<text xml:space="preserve" text-anchor="middle" x="574.17" y="-28.8" font-family="Helvetica,sans-Serif" font-size="11.00">Synced</text>
<text xml:space="preserve" text-anchor="middle" x="574.17" y="-16.8" font-family="Helvetica,sans-Serif" font-size="11.00">(items flowing)</text>
</g>
<!-- bootstrapped&#45;&gt;synced -->
<g id="edge2" class="edge">
<title>bootstrapped&#45;&gt;synced</title>
<path fill="none" stroke="black" d="M378.71,-78.53C419.6,-67.74 472.47,-53.8 512.76,-43.18"/>
<polygon fill="black" stroke="black" points="513.53,-46.6 522.31,-40.66 511.74,-39.83 513.53,-46.6"/>
<text xml:space="preserve" text-anchor="middle" x="451.66" y="-82.34" font-family="Helvetica,sans-Serif" font-size="10.00">Sync(key=NewKey)</text>
<text xml:space="preserve" text-anchor="middle" x="451.66" y="-71.09" font-family="Helvetica,sans-Serif" font-size="10.00">returns initial batch</text>
</g>
<!-- synced&#45;&gt;nokey -->
<g id="edge4" class="edge">
<title>synced&#45;&gt;nokey</title>
<path fill="none" stroke="#cc0000" d="M515.25,-21.14C448.39,-15.21 335.25,-8.62 238.81,-20 200.78,-24.49 158.99,-34.36 126.08,-43.32"/>
<polygon fill="#cc0000" stroke="#cc0000" points="125.43,-39.86 116.73,-45.91 127.3,-46.61 125.43,-39.86"/>
<text xml:space="preserve" text-anchor="middle" x="314.3" y="-45.75" font-family="Helvetica,sans-Serif" font-size="10.00" fill="#cc0000">Status=3 InvalidSyncKey</text>
<text xml:space="preserve" text-anchor="middle" x="314.3" y="-34.5" font-family="Helvetica,sans-Serif" font-size="10.00" fill="#cc0000">(server reset state)</text>
<text xml:space="preserve" text-anchor="middle" x="314.3" y="-23.25" font-family="Helvetica,sans-Serif" font-size="10.00" fill="#cc0000">→ key cleared, retry once</text>
</g>
<!-- synced&#45;&gt;synced -->
<g id="edge3" class="edge">
<title>synced&#45;&gt;synced</title>
<path fill="none" stroke="black" d="M559.56,-49.4C558.17,-59.31 563.04,-67.88 574.17,-67.88 580.6,-67.88 584.94,-65.01 587.19,-60.68"/>
<polygon fill="black" stroke="black" points="590.64,-61.29 588.56,-50.9 583.71,-60.31 590.64,-61.29"/>
<text xml:space="preserve" text-anchor="middle" x="574.17" y="-92.13" font-family="Helvetica,sans-Serif" font-size="10.00">Sync(key=Last)</text>
<text xml:space="preserve" text-anchor="middle" x="574.17" y="-80.88" font-family="Helvetica,sans-Serif" font-size="10.00">returns delta;</text>
<text xml:space="preserve" text-anchor="middle" x="574.17" y="-69.63" font-family="Helvetica,sans-Serif" font-size="10.00">advances key</text>
</g>
<!-- note -->
<g id="node4" class="node">
<title>note</title>
<polygon fill="#fff2cc" stroke="black" points="984.8,-54.5 671.8,-54.5 671.8,0 990.8,0 990.8,-48.5 984.8,-54.5"/>
<polyline fill="none" stroke="black" points="984.8,-54.5 984.8,-48.5"/>
<polyline fill="none" stroke="black" points="990.8,-48.5 984.8,-48.5"/>
<text xml:space="preserve" text-anchor="middle" x="831.3" y="-41" font-family="Helvetica,sans-Serif" font-size="10.00">SyncEmail() walks the bootstrap (NoKey → Bootstrapped → Synced)</text>
<text xml:space="preserve" text-anchor="middle" x="831.3" y="-28.25" font-family="Helvetica,sans-Serif" font-size="10.00">in one call by default. Pass NoBootstrap: true to do exactly one</text>
<text xml:space="preserve" text-anchor="middle" x="831.3" y="-17" font-family="Helvetica,sans-Serif" font-size="10.00">round&#45;trip — useful in tests and for streaming clients that want</text>
<text xml:space="preserve" text-anchor="middle" x="831.3" y="-5.75" font-family="Helvetica,sans-Serif" font-size="10.00">to observe each batch.</text>
</g>
<!-- synced&#45;&gt;note -->
</g>
</svg>
