<?xml version="1.0" encoding="UTF-8" standalone="no"?>
<!DOCTYPE svg PUBLIC "-//W3C//DTD SVG 1.1//EN"
 "http://www.w3.org/Graphics/SVG/1.1/DTD/svg11.dtd">
<!-- Generated by graphviz version 14.1.5 (20260411.2331)
 -->
<!-- Title: architecture Pages: 1 -->
<svg width="869pt" height="258pt"
 viewBox="0.00 0.00 869.00 258.00" xmlns="http://www.w3.org/2000/svg" xmlns:xlink="http://www.w3.org/1999/xlink">
<g id="graph0" class="graph" transform="scale(1 1) rotate(0) translate(4 253.5)">
<title>architecture</title>
<polygon fill="white" stroke="none" points="-4,4 -4,-253.5 865.25,-253.5 865.25,4 -4,4"/>
<g id="clust1" class="cluster">
<title>cluster_lib</title>
<polygon fill="white" stroke="#888888" stroke-dasharray="5,2" points="182.75,-60.5 182.75,-241.5 603.12,-241.5 603.12,-60.5 182.75,-60.5"/>
<text xml:space="preserve" text-anchor="middle" x="267.62" y="-227.05" font-family="Helvetica,sans-Serif" font-size="11.00">github.com/hstern/go&#45;activesync</text>
</g>
<!-- caller -->
<g id="node1" class="node">
<title>caller</title>
<path fill="#e7f3fe" stroke="black" d="M79.75,-132.5C79.75,-132.5 12,-132.5 12,-132.5 6,-132.5 0,-126.5 0,-120.5 0,-120.5 0,-108.5 0,-108.5 0,-102.5 6,-96.5 12,-96.5 12,-96.5 79.75,-96.5 79.75,-96.5 85.75,-96.5 91.75,-102.5 91.75,-108.5 91.75,-108.5 91.75,-120.5 91.75,-120.5 91.75,-126.5 85.75,-132.5 79.75,-132.5"/>
<text xml:space="preserve" text-anchor="middle" x="45.88" y="-110.05" font-family="Helvetica,sans-Serif" font-size="11.00">Your application</text>
</g>
<!-- eas -->
<g id="node2" class="node">
<title>eas</title>
<path fill="#cfe2f3" stroke="black" d="M309.5,-155C309.5,-155 202.75,-155 202.75,-155 196.75,-155 190.75,-149 190.75,-143 190.75,-143 190.75,-86 190.75,-86 190.75,-80 196.75,-74 202.75,-74 202.75,-74 309.5,-74 309.5,-74 315.5,-74 321.5,-80 321.5,-86 321.5,-86 321.5,-143 321.5,-143 321.5,-149 315.5,-155 309.5,-155"/>
<text xml:space="preserve" text-anchor="middle" x="256.12" y="-140.55" font-family="Helvetica,sans-Serif" font-size="11.00">eas.Client</text>
<text xml:space="preserve" text-anchor="middle" x="256.12" y="-115.55" font-family="Helvetica,sans-Serif" font-size="11.00">FolderSync, SyncEmail,</text>
<text xml:space="preserve" text-anchor="middle" x="256.12" y="-103.55" font-family="Helvetica,sans-Serif" font-size="11.00">SendMail, CreateEvent,</text>
<text xml:space="preserve" text-anchor="middle" x="256.12" y="-91.55" font-family="Helvetica,sans-Serif" font-size="11.00">ResolveRecipients,</text>
<text xml:space="preserve" text-anchor="middle" x="256.12" y="-79.55" font-family="Helvetica,sans-Serif" font-size="11.00">Provision, Ping, …</text>
</g>
<!-- caller&#45;&gt;eas -->
<g id="edge1" class="edge">
<title>caller&#45;&gt;eas</title>
<path fill="none" stroke="black" d="M92.06,-114.5C117.41,-114.5 149.7,-114.5 178.85,-114.5"/>
<polygon fill="black" stroke="black" points="178.75,-118 188.75,-114.5 178.75,-111 178.75,-118"/>
<text xml:space="preserve" text-anchor="middle" x="141.25" y="-116.25" font-family="Helvetica,sans-Serif" font-size="10.00">typed Go calls</text>
</g>
<!-- wbxml -->
<g id="node3" class="node">
<title>wbxml</title>
<path fill="#cfe2f3" stroke="black" d="M583.12,-126C583.12,-126 491.38,-126 491.38,-126 485.38,-126 479.38,-120 479.38,-114 479.38,-114 479.38,-81 479.38,-81 479.38,-75 485.38,-69 491.38,-69 491.38,-69 583.12,-69 583.12,-69 589.12,-69 595.12,-75 595.12,-81 595.12,-81 595.12,-114 595.12,-114 595.12,-120 589.12,-126 583.12,-126"/>
<text xml:space="preserve" text-anchor="middle" x="537.25" y="-111.55" font-family="Helvetica,sans-Serif" font-size="11.00">wbxml</text>
<text xml:space="preserve" text-anchor="middle" x="537.25" y="-86.55" font-family="Helvetica,sans-Serif" font-size="11.00">25 EAS code pages</text>
<text xml:space="preserve" text-anchor="middle" x="537.25" y="-74.55" font-family="Helvetica,sans-Serif" font-size="11.00">Marshal / Unmarshal</text>
</g>
<!-- eas&#45;&gt;wbxml -->
<g id="edge2" class="edge">
<title>eas&#45;&gt;wbxml</title>
<path fill="none" stroke="black" d="M321.55,-95.37C327.58,-94.11 333.63,-93.03 339.5,-92.25 381.86,-86.63 429.79,-87.75 467.74,-90.37"/>
<polygon fill="black" stroke="black" points="467.43,-93.86 477.67,-91.12 467.95,-86.88 467.43,-93.86"/>
<text xml:space="preserve" text-anchor="middle" x="392.38" y="-94" font-family="Helvetica,sans-Serif" font-size="10.00">build WBXML body</text>
</g>
<!-- state -->
<g id="node4" class="node">
<title>state</title>
<path fill="#fff2cc" stroke="black" d="M579.38,-213C579.38,-213 495.12,-213 495.12,-213 489.12,-213 483.12,-207 483.12,-201 483.12,-201 483.12,-156 483.12,-156 483.12,-150 489.12,-144 495.12,-144 495.12,-144 579.38,-144 579.38,-144 585.38,-144 591.38,-150 591.38,-156 591.38,-156 591.38,-201 591.38,-201 591.38,-207 585.38,-213 579.38,-213"/>
<text xml:space="preserve" text-anchor="middle" x="537.25" y="-198.55" font-family="Helvetica,sans-Serif" font-size="11.00">StateStore</text>
<text xml:space="preserve" text-anchor="middle" x="537.25" y="-186.55" font-family="Helvetica,sans-Serif" font-size="11.00">(interface)</text>
<text xml:space="preserve" text-anchor="middle" x="537.25" y="-161.55" font-family="Helvetica,sans-Serif" font-size="11.00">PolicyKey,</text>
<text xml:space="preserve" text-anchor="middle" x="537.25" y="-149.55" font-family="Helvetica,sans-Serif" font-size="11.00">per&#45;folder SyncKey</text>
</g>
<!-- eas&#45;&gt;state -->
<g id="edge7" class="edge">
<title>eas&#45;&gt;state</title>
<path fill="none" stroke="black" d="M333,-131.9C376.39,-141.85 430.23,-154.19 471.59,-163.67"/>
<polygon fill="black" stroke="black" points="333.87,-128.51 323.34,-129.68 332.3,-135.33 333.87,-128.51"/>
<polygon fill="black" stroke="black" points="470.63,-167.05 481.16,-165.87 472.2,-160.22 470.63,-167.05"/>
<text xml:space="preserve" text-anchor="middle" x="392.38" y="-157.72" font-family="Helvetica,sans-Serif" font-size="10.00">read/write keys</text>
</g>
<!-- transport -->
<g id="node5" class="node">
<title>transport</title>
<path fill="#d9ead3" stroke="black" d="M599.25,-50.5C599.25,-50.5 475.25,-50.5 475.25,-50.5 469.25,-50.5 463.25,-44.5 463.25,-38.5 463.25,-38.5 463.25,-18.5 463.25,-18.5 463.25,-12.5 469.25,-6.5 475.25,-6.5 475.25,-6.5 599.25,-6.5 599.25,-6.5 605.25,-6.5 611.25,-12.5 611.25,-18.5 611.25,-18.5 611.25,-38.5 611.25,-38.5 611.25,-44.5 605.25,-50.5 599.25,-50.5"/>
<text xml:space="preserve" text-anchor="middle" x="537.25" y="-36.05" font-family="Helvetica,sans-Serif" font-size="11.00">*http.Client</text>
<text xml:space="preserve" text-anchor="middle" x="537.25" y="-24.05" font-family="Helvetica,sans-Serif" font-size="11.00">+ optional auth wrap</text>
<text xml:space="preserve" text-anchor="middle" x="537.25" y="-12.05" font-family="Helvetica,sans-Serif" font-size="11.00">(NTLM / SPNEGO / mTLS)</text>
</g>
<!-- eas&#45;&gt;transport -->
<g id="edge4" class="edge">
<title>eas&#45;&gt;transport</title>
<path fill="none" stroke="black" d="M315.01,-73.66C322.99,-69.22 331.27,-65.17 339.5,-62 374.94,-48.33 416.12,-40.23 451.61,-35.43"/>
<polygon fill="black" stroke="black" points="451.94,-38.91 461.41,-34.17 451.05,-31.97 451.94,-38.91"/>
<text xml:space="preserve" text-anchor="middle" x="392.38" y="-75" font-family="Helvetica,sans-Serif" font-size="10.00">HTTP POST</text>
<text xml:space="preserve" text-anchor="middle" x="392.38" y="-63.75" font-family="Helvetica,sans-Serif" font-size="10.00">vnd.ms&#45;sync.wbxml</text>
</g>
<!-- wbxml&#45;&gt;eas -->
<g id="edge3" class="edge">
<title>wbxml&#45;&gt;eas</title>
<path fill="none" stroke="black" stroke-dasharray="5,2" d="M478.97,-101.34C467.79,-102.07 456.15,-102.82 445.25,-103.5 408.43,-105.79 367.55,-108.2 333.33,-110.17"/>
<polygon fill="black" stroke="black" points="333.29,-106.67 323.51,-110.74 333.69,-113.66 333.29,-106.67"/>
<text xml:space="preserve" text-anchor="middle" x="392.38" y="-111.37" font-family="Helvetica,sans-Serif" font-size="10.00">parse WBXML response</text>
</g>
<!-- store -->
<g id="node7" class="node">
<title>store</title>
<path fill="#fff2cc" stroke="black" stroke-dasharray="5,2" d="M842.88,-200.5C842.88,-200.5 757.88,-200.5 757.88,-200.5 751.88,-200.5 745.88,-194.5 745.88,-188.5 745.88,-188.5 745.88,-168.5 745.88,-168.5 745.88,-162.5 751.88,-156.5 757.88,-156.5 757.88,-156.5 842.88,-156.5 842.88,-156.5 848.88,-156.5 854.88,-162.5 854.88,-168.5 854.88,-168.5 854.88,-188.5 854.88,-188.5 854.88,-194.5 848.88,-200.5 842.88,-200.5"/>
<text xml:space="preserve" text-anchor="middle" x="800.38" y="-186.05" font-family="Helvetica,sans-Serif" font-size="11.00">Your durable</text>
<text xml:space="preserve" text-anchor="middle" x="800.38" y="-174.05" font-family="Helvetica,sans-Serif" font-size="11.00">backend</text>
<text xml:space="preserve" text-anchor="middle" x="800.38" y="-162.05" font-family="Helvetica,sans-Serif" font-size="11.00">(bbolt, SQLite, etc.)</text>
</g>
<!-- state&#45;&gt;store -->
<g id="edge8" class="edge">
<title>state&#45;&gt;store</title>
<path fill="none" stroke="black" stroke-dasharray="5,2" d="M591.72,-178.5C636.63,-178.5 700.51,-178.5 745.53,-178.5"/>
<text xml:space="preserve" text-anchor="middle" x="675.38" y="-180.25" font-family="Helvetica,sans-Serif" font-size="10.00">implementor&#39;s choice</text>
</g>
<!-- server -->
<g id="node6" class="node">
<title>server</title>
<path fill="#d9ead3" stroke="black" d="M849.25,-57C849.25,-57 751.5,-57 751.5,-57 745.5,-57 739.5,-51 739.5,-45 739.5,-45 739.5,-12 739.5,-12 739.5,-6 745.5,0 751.5,0 751.5,0 849.25,0 849.25,0 855.25,0 861.25,-6 861.25,-12 861.25,-12 861.25,-45 861.25,-45 861.25,-51 855.25,-57 849.25,-57"/>
<text xml:space="preserve" text-anchor="middle" x="800.38" y="-42.55" font-family="Helvetica,sans-Serif" font-size="11.00">EAS server</text>
<text xml:space="preserve" text-anchor="middle" x="800.38" y="-17.55" font-family="Helvetica,sans-Serif" font-size="11.00">Z&#45;Push · SOGo ·</text>
<text xml:space="preserve" text-anchor="middle" x="800.38" y="-5.55" font-family="Helvetica,sans-Serif" font-size="11.00">Exchange · Office 365</text>
</g>
<!-- transport&#45;&gt;server -->
<g id="edge5" class="edge">
<title>transport&#45;&gt;server</title>
<path fill="none" stroke="black" d="M611.68,-28.5C648.03,-28.5 691.73,-28.5 727.81,-28.5"/>
<polygon fill="black" stroke="black" points="727.73,-32 737.73,-28.5 727.73,-25 727.73,-32"/>
<text xml:space="preserve" text-anchor="middle" x="675.38" y="-30.25" font-family="Helvetica,sans-Serif" font-size="10.00">HTTPS</text>
</g>
<!-- server&#45;&gt;transport -->
<g id="edge6" class="edge">
<title>server&#45;&gt;transport</title>
<path fill="none" stroke="black" stroke-dasharray="5,2" d="M739.17,-15.52C733.22,-14.59 727.26,-13.81 721.5,-13.25 680.69,-9.29 670.11,-9.85 629.25,-13.25 627.18,-13.42 625.1,-13.62 622.99,-13.83"/>
<polygon fill="black" stroke="black" points="622.67,-10.34 613.13,-14.96 623.46,-17.3 622.67,-10.34"/>
<text xml:space="preserve" text-anchor="middle" x="675.38" y="-15" font-family="Helvetica,sans-Serif" font-size="10.00">200 OK + WBXML</text>
</g>
</g>
</svg>
