<?xml version="1.0" encoding="UTF-8" standalone="no"?>
<!DOCTYPE svg PUBLIC "-//W3C//DTD SVG 1.1//EN"
 "http://www.w3.org/Graphics/SVG/1.1/DTD/svg11.dtd">
<!-- Generated by graphviz version 14.1.5 (20260411.2331)
 -->
<!-- Title: architecture Pages: 1 -->
<svg width="887pt" height="258pt"
 viewBox="0.00 0.00 887.00 258.00" xmlns="http://www.w3.org/2000/svg" xmlns:xlink="http://www.w3.org/1999/xlink">
<g id="graph0" class="graph" transform="scale(1 1) rotate(0) translate(4 253.5)">
<title>architecture</title>
<polygon fill="white" stroke="none" points="-4,4 -4,-253.5 883.25,-253.5 883.25,4 -4,4"/>
<g id="clust1" class="cluster">
<title>cluster_lib</title>
<polygon fill="white" stroke="#888888" stroke-dasharray="5,2" points="200.75,-60.5 200.75,-241.5 621.12,-241.5 621.12,-60.5 200.75,-60.5"/>
<text xml:space="preserve" text-anchor="middle" x="285.62" y="-227.05" font-family="Helvetica,sans-Serif" font-size="11.00">github.com/hstern/go&#45;activesync</text>
</g>
<!-- caller -->
<g id="node1" class="node">
<title>caller</title>
<path fill="#e7f3fe" stroke="black" d="M97.75,-132.5C97.75,-132.5 12,-132.5 12,-132.5 6,-132.5 0,-126.5 0,-120.5 0,-120.5 0,-108.5 0,-108.5 0,-102.5 6,-96.5 12,-96.5 12,-96.5 97.75,-96.5 97.75,-96.5 103.75,-96.5 109.75,-102.5 109.75,-108.5 109.75,-108.5 109.75,-120.5 109.75,-120.5 109.75,-126.5 103.75,-132.5 97.75,-132.5"/>
<text xml:space="preserve" text-anchor="middle" x="54.88" y="-116.05" font-family="Helvetica,sans-Serif" font-size="11.00">Your application</text>
<text xml:space="preserve" text-anchor="middle" x="54.88" y="-104.05" font-family="Helvetica,sans-Serif" font-size="11.00">(or activesync&#45;mcp)</text>
</g>
<!-- eas -->
<g id="node2" class="node">
<title>eas</title>
<path fill="#cfe2f3" stroke="black" d="M327.5,-155C327.5,-155 220.75,-155 220.75,-155 214.75,-155 208.75,-149 208.75,-143 208.75,-143 208.75,-86 208.75,-86 208.75,-80 214.75,-74 220.75,-74 220.75,-74 327.5,-74 327.5,-74 333.5,-74 339.5,-80 339.5,-86 339.5,-86 339.5,-143 339.5,-143 339.5,-149 333.5,-155 327.5,-155"/>
<text xml:space="preserve" text-anchor="middle" x="274.12" y="-140.55" font-family="Helvetica,sans-Serif" font-size="11.00">eas.Client</text>
<text xml:space="preserve" text-anchor="middle" x="274.12" y="-115.55" font-family="Helvetica,sans-Serif" font-size="11.00">FolderSync, SyncEmail,</text>
<text xml:space="preserve" text-anchor="middle" x="274.12" y="-103.55" font-family="Helvetica,sans-Serif" font-size="11.00">SendMail, CreateEvent,</text>
<text xml:space="preserve" text-anchor="middle" x="274.12" y="-91.55" font-family="Helvetica,sans-Serif" font-size="11.00">ResolveRecipients,</text>
<text xml:space="preserve" text-anchor="middle" x="274.12" y="-79.55" font-family="Helvetica,sans-Serif" font-size="11.00">Provision, Ping, …</text>
</g>
<!-- caller&#45;&gt;eas -->
<g id="edge1" class="edge">
<title>caller&#45;&gt;eas</title>
<path fill="none" stroke="black" d="M110.14,-114.5C136.43,-114.5 168.45,-114.5 197.13,-114.5"/>
<polygon fill="black" stroke="black" points="196.84,-118 206.84,-114.5 196.84,-111 196.84,-118"/>
<text xml:space="preserve" text-anchor="middle" x="159.25" y="-116.25" font-family="Helvetica,sans-Serif" font-size="10.00">typed Go calls</text>
</g>
<!-- wbxml -->
<g id="node3" class="node">
<title>wbxml</title>
<path fill="#cfe2f3" stroke="black" d="M601.12,-126C601.12,-126 509.38,-126 509.38,-126 503.38,-126 497.38,-120 497.38,-114 497.38,-114 497.38,-81 497.38,-81 497.38,-75 503.38,-69 509.38,-69 509.38,-69 601.12,-69 601.12,-69 607.12,-69 613.12,-75 613.12,-81 613.12,-81 613.12,-114 613.12,-114 613.12,-120 607.12,-126 601.12,-126"/>
<text xml:space="preserve" text-anchor="middle" x="555.25" y="-111.55" font-family="Helvetica,sans-Serif" font-size="11.00">wbxml</text>
<text xml:space="preserve" text-anchor="middle" x="555.25" y="-86.55" font-family="Helvetica,sans-Serif" font-size="11.00">25 EAS code pages</text>
<text xml:space="preserve" text-anchor="middle" x="555.25" y="-74.55" font-family="Helvetica,sans-Serif" font-size="11.00">Marshal / Unmarshal</text>
</g>
<!-- eas&#45;&gt;wbxml -->
<g id="edge2" class="edge">
<title>eas&#45;&gt;wbxml</title>
<path fill="none" stroke="black" d="M339.55,-95.37C345.58,-94.11 351.63,-93.03 357.5,-92.25 399.86,-86.63 447.79,-87.75 485.74,-90.37"/>
<polygon fill="black" stroke="black" points="485.43,-93.86 495.67,-91.12 485.95,-86.88 485.43,-93.86"/>
<text xml:space="preserve" text-anchor="middle" x="410.38" y="-94" font-family="Helvetica,sans-Serif" font-size="10.00">build WBXML body</text>
</g>
<!-- state -->
<g id="node4" class="node">
<title>state</title>
<path fill="#fff2cc" stroke="black" d="M597.38,-213C597.38,-213 513.12,-213 513.12,-213 507.12,-213 501.12,-207 501.12,-201 501.12,-201 501.12,-156 501.12,-156 501.12,-150 507.12,-144 513.12,-144 513.12,-144 597.38,-144 597.38,-144 603.38,-144 609.38,-150 609.38,-156 609.38,-156 609.38,-201 609.38,-201 609.38,-207 603.38,-213 597.38,-213"/>
<text xml:space="preserve" text-anchor="middle" x="555.25" y="-198.55" font-family="Helvetica,sans-Serif" font-size="11.00">StateStore</text>
<text xml:space="preserve" text-anchor="middle" x="555.25" y="-186.55" font-family="Helvetica,sans-Serif" font-size="11.00">(interface)</text>
<text xml:space="preserve" text-anchor="middle" x="555.25" y="-161.55" font-family="Helvetica,sans-Serif" font-size="11.00">PolicyKey,</text>
<text xml:space="preserve" text-anchor="middle" x="555.25" y="-149.55" font-family="Helvetica,sans-Serif" font-size="11.00">per&#45;folder SyncKey</text>
</g>
<!-- eas&#45;&gt;state -->
<g id="edge7" class="edge">
<title>eas&#45;&gt;state</title>
<path fill="none" stroke="black" d="M351,-131.9C394.39,-141.85 448.23,-154.19 489.59,-163.67"/>
<polygon fill="black" stroke="black" points="351.87,-128.51 341.34,-129.68 350.3,-135.33 351.87,-128.51"/>
<polygon fill="black" stroke="black" points="488.63,-167.05 499.16,-165.87 490.2,-160.22 488.63,-167.05"/>
<text xml:space="preserve" text-anchor="middle" x="410.38" y="-157.72" font-family="Helvetica,sans-Serif" font-size="10.00">read/write keys</text>
</g>
<!-- transport -->
<g id="node5" class="node">
<title>transport</title>
<path fill="#d9ead3" stroke="black" d="M617.25,-50.5C617.25,-50.5 493.25,-50.5 493.25,-50.5 487.25,-50.5 481.25,-44.5 481.25,-38.5 481.25,-38.5 481.25,-18.5 481.25,-18.5 481.25,-12.5 487.25,-6.5 493.25,-6.5 493.25,-6.5 617.25,-6.5 617.25,-6.5 623.25,-6.5 629.25,-12.5 629.25,-18.5 629.25,-18.5 629.25,-38.5 629.25,-38.5 629.25,-44.5 623.25,-50.5 617.25,-50.5"/>
<text xml:space="preserve" text-anchor="middle" x="555.25" y="-36.05" font-family="Helvetica,sans-Serif" font-size="11.00">*http.Client</text>
<text xml:space="preserve" text-anchor="middle" x="555.25" y="-24.05" font-family="Helvetica,sans-Serif" font-size="11.00">+ optional auth wrap</text>
<text xml:space="preserve" text-anchor="middle" x="555.25" y="-12.05" font-family="Helvetica,sans-Serif" font-size="11.00">(NTLM / SPNEGO / mTLS)</text>
</g>
<!-- eas&#45;&gt;transport -->
<g id="edge4" class="edge">
<title>eas&#45;&gt;transport</title>
<path fill="none" stroke="black" d="M333.01,-73.66C340.99,-69.22 349.27,-65.17 357.5,-62 392.94,-48.33 434.12,-40.23 469.61,-35.43"/>
<polygon fill="black" stroke="black" points="469.94,-38.91 479.41,-34.17 469.05,-31.97 469.94,-38.91"/>
<text xml:space="preserve" text-anchor="middle" x="410.38" y="-75" font-family="Helvetica,sans-Serif" font-size="10.00">HTTP POST</text>
<text xml:space="preserve" text-anchor="middle" x="410.38" y="-63.75" font-family="Helvetica,sans-Serif" font-size="10.00">vnd.ms&#45;sync.wbxml</text>
</g>
<!-- wbxml&#45;&gt;eas -->
<g id="edge3" class="edge">
<title>wbxml&#45;&gt;eas</title>
<path fill="none" stroke="black" stroke-dasharray="5,2" d="M496.97,-101.34C485.79,-102.07 474.15,-102.82 463.25,-103.5 426.43,-105.79 385.55,-108.2 351.33,-110.17"/>
<polygon fill="black" stroke="black" points="351.29,-106.67 341.51,-110.74 351.69,-113.66 351.29,-106.67"/>
<text xml:space="preserve" text-anchor="middle" x="410.38" y="-111.37" font-family="Helvetica,sans-Serif" font-size="10.00">parse WBXML response</text>
</g>
<!-- store -->
<g id="node7" class="node">
<title>store</title>
<path fill="#fff2cc" stroke="black" stroke-dasharray="5,2" d="M860.88,-200.5C860.88,-200.5 775.88,-200.5 775.88,-200.5 769.88,-200.5 763.88,-194.5 763.88,-188.5 763.88,-188.5 763.88,-168.5 763.88,-168.5 763.88,-162.5 769.88,-156.5 775.88,-156.5 775.88,-156.5 860.88,-156.5 860.88,-156.5 866.88,-156.5 872.88,-162.5 872.88,-168.5 872.88,-168.5 872.88,-188.5 872.88,-188.5 872.88,-194.5 866.88,-200.5 860.88,-200.5"/>
<text xml:space="preserve" text-anchor="middle" x="818.38" y="-186.05" font-family="Helvetica,sans-Serif" font-size="11.00">Your durable</text>
<text xml:space="preserve" text-anchor="middle" x="818.38" y="-174.05" font-family="Helvetica,sans-Serif" font-size="11.00">backend</text>
<text xml:space="preserve" text-anchor="middle" x="818.38" y="-162.05" font-family="Helvetica,sans-Serif" font-size="11.00">(bbolt, SQLite, etc.)</text>
</g>
<!-- state&#45;&gt;store -->
<g id="edge8" class="edge">
<title>state&#45;&gt;store</title>
<path fill="none" stroke="black" stroke-dasharray="5,2" d="M609.72,-178.5C654.63,-178.5 718.51,-178.5 763.53,-178.5"/>
<text xml:space="preserve" text-anchor="middle" x="693.38" y="-180.25" font-family="Helvetica,sans-Serif" font-size="10.00">implementor&#39;s choice</text>
</g>
<!-- server -->
<g id="node6" class="node">
<title>server</title>
<path fill="#d9ead3" stroke="black" d="M867.25,-57C867.25,-57 769.5,-57 769.5,-57 763.5,-57 757.5,-51 757.5,-45 757.5,-45 757.5,-12 757.5,-12 757.5,-6 763.5,0 769.5,0 769.5,0 867.25,0 867.25,0 873.25,0 879.25,-6 879.25,-12 879.25,-12 879.25,-45 879.25,-45 879.25,-51 873.25,-57 867.25,-57"/>
<text xml:space="preserve" text-anchor="middle" x="818.38" y="-42.55" font-family="Helvetica,sans-Serif" font-size="11.00">EAS server</text>
<text xml:space="preserve" text-anchor="middle" x="818.38" y="-17.55" font-family="Helvetica,sans-Serif" font-size="11.00">Z&#45;Push · SOGo ·</text>
<text xml:space="preserve" text-anchor="middle" x="818.38" y="-5.55" font-family="Helvetica,sans-Serif" font-size="11.00">Exchange · Office 365</text>
</g>
<!-- transport&#45;&gt;server -->
<g id="edge5" class="edge">
<title>transport&#45;&gt;server</title>
<path fill="none" stroke="black" d="M629.68,-28.5C666.03,-28.5 709.73,-28.5 745.81,-28.5"/>
<polygon fill="black" stroke="black" points="745.73,-32 755.73,-28.5 745.73,-25 745.73,-32"/>
<text xml:space="preserve" text-anchor="middle" x="693.38" y="-30.25" font-family="Helvetica,sans-Serif" font-size="10.00">HTTPS</text>
</g>
<!-- server&#45;&gt;transport -->
<g id="edge6" class="edge">
<title>server&#45;&gt;transport</title>
<path fill="none" stroke="black" stroke-dasharray="5,2" d="M757.17,-15.52C751.22,-14.59 745.26,-13.81 739.5,-13.25 698.69,-9.29 688.11,-9.85 647.25,-13.25 645.18,-13.42 643.1,-13.62 640.99,-13.83"/>
<polygon fill="black" stroke="black" points="640.67,-10.34 631.13,-14.96 641.46,-17.3 640.67,-10.34"/>
<text xml:space="preserve" text-anchor="middle" x="693.38" y="-15" font-family="Helvetica,sans-Serif" font-size="10.00">200 OK + WBXML</text>
</g>
</g>
</svg>
