<?xml version="1.0" encoding="UTF-8" standalone="no"?>
<!DOCTYPE svg PUBLIC "-//W3C//DTD SVG 1.1//EN"
 "http://www.w3.org/Graphics/SVG/1.1/DTD/svg11.dtd">
<!-- Generated by graphviz version 14.1.5 (20260411.2331)
 -->
<!-- Title: architecture Pages: 1 -->
<svg width="877pt" height="294pt"
 viewBox="0.00 0.00 877.00 294.00" xmlns="http://www.w3.org/2000/svg" xmlns:xlink="http://www.w3.org/1999/xlink">
<g id="graph0" class="graph" transform="scale(1 1) rotate(0) translate(4 289.5)">
<title>architecture</title>
<polygon fill="white" stroke="none" points="-4,4 -4,-289.5 873.38,-289.5 873.38,4 -4,4"/>
<g id="clust1" class="cluster">
<title>cluster_lib</title>
<polygon fill="white" stroke="#888888" stroke-dasharray="5,2" points="8,-60.5 8,-241.5 611.25,-241.5 611.25,-60.5 8,-60.5"/>
<text xml:space="preserve" text-anchor="middle" x="92.88" y="-227.05" font-family="Helvetica,sans-Serif" font-size="11.00">github.com/hstern/go&#45;activesync</text>
</g>
<!-- caller -->
<g id="node1" class="node">
<title>caller</title>
<path fill="#e7f3fe" stroke="black" d="M87.88,-285.5C87.88,-285.5 20.12,-285.5 20.12,-285.5 14.12,-285.5 8.12,-279.5 8.12,-273.5 8.12,-273.5 8.12,-261.5 8.12,-261.5 8.12,-255.5 14.12,-249.5 20.12,-249.5 20.12,-249.5 87.88,-249.5 87.88,-249.5 93.88,-249.5 99.88,-255.5 99.88,-261.5 99.88,-261.5 99.88,-273.5 99.88,-273.5 99.88,-279.5 93.88,-285.5 87.88,-285.5"/>
<text xml:space="preserve" text-anchor="middle" x="54" y="-263.05" font-family="Helvetica,sans-Serif" font-size="11.00">Your application</text>
</g>
<!-- eas -->
<g id="node2" class="node">
<title>eas</title>
<path fill="#cfe2f3" stroke="black" d="M317.62,-178C317.62,-178 210.88,-178 210.88,-178 204.88,-178 198.88,-172 198.88,-166 198.88,-166 198.88,-97 198.88,-97 198.88,-91 204.88,-85 210.88,-85 210.88,-85 317.62,-85 317.62,-85 323.62,-85 329.62,-91 329.62,-97 329.62,-97 329.62,-166 329.62,-166 329.62,-172 323.62,-178 317.62,-178"/>
<text xml:space="preserve" text-anchor="middle" x="264.25" y="-163.55" font-family="Helvetica,sans-Serif" font-size="11.00">eas.Client</text>
<text xml:space="preserve" text-anchor="middle" x="264.25" y="-151.55" font-family="Helvetica,sans-Serif" font-size="11.00">(interface)</text>
<text xml:space="preserve" text-anchor="middle" x="264.25" y="-126.55" font-family="Helvetica,sans-Serif" font-size="11.00">FolderSync, SyncEmail,</text>
<text xml:space="preserve" text-anchor="middle" x="264.25" y="-114.55" font-family="Helvetica,sans-Serif" font-size="11.00">SendMail, CreateEvent,</text>
<text xml:space="preserve" text-anchor="middle" x="264.25" y="-102.55" font-family="Helvetica,sans-Serif" font-size="11.00">ResolveRecipients,</text>
<text xml:space="preserve" text-anchor="middle" x="264.25" y="-90.55" font-family="Helvetica,sans-Serif" font-size="11.00">Provision, Ping, …</text>
</g>
<!-- caller&#45;&gt;eas -->
<g id="edge1" class="edge">
<title>caller&#45;&gt;eas</title>
<path fill="none" stroke="black" d="M93.4,-249.17C95.61,-247.96 97.78,-246.73 99.88,-245.5 130.8,-227.28 163.49,-205.1 191.45,-185.16"/>
<polygon fill="black" stroke="black" points="193.42,-188.05 199.5,-179.38 189.34,-182.37 193.42,-188.05"/>
<text xml:space="preserve" text-anchor="middle" x="149.38" y="-236.05" font-family="Helvetica,sans-Serif" font-size="10.00">typed Go calls</text>
</g>
<!-- wbxml -->
<g id="node3" class="node">
<title>wbxml</title>
<path fill="#cfe2f3" stroke="black" d="M591.25,-126C591.25,-126 499.5,-126 499.5,-126 493.5,-126 487.5,-120 487.5,-114 487.5,-114 487.5,-81 487.5,-81 487.5,-75 493.5,-69 499.5,-69 499.5,-69 591.25,-69 591.25,-69 597.25,-69 603.25,-75 603.25,-81 603.25,-81 603.25,-114 603.25,-114 603.25,-120 597.25,-126 591.25,-126"/>
<text xml:space="preserve" text-anchor="middle" x="545.38" y="-111.55" font-family="Helvetica,sans-Serif" font-size="11.00">wbxml</text>
<text xml:space="preserve" text-anchor="middle" x="545.38" y="-86.55" font-family="Helvetica,sans-Serif" font-size="11.00">25 EAS code pages</text>
<text xml:space="preserve" text-anchor="middle" x="545.38" y="-74.55" font-family="Helvetica,sans-Serif" font-size="11.00">Marshal / Unmarshal</text>
</g>
<!-- eas&#45;&gt;wbxml -->
<g id="edge2" class="edge">
<title>eas&#45;&gt;wbxml</title>
<path fill="none" stroke="black" d="M329.75,-102.83C335.71,-100.98 341.72,-99.41 347.62,-98.25 389.7,-90 437.81,-89.66 475.93,-91.45"/>
<polygon fill="black" stroke="black" points="475.73,-94.95 485.91,-91.99 476.11,-87.96 475.73,-94.95"/>
<text xml:space="preserve" text-anchor="middle" x="400.5" y="-100" font-family="Helvetica,sans-Serif" font-size="10.00">build WBXML body</text>
</g>
<!-- state -->
<g id="node4" class="node">
<title>state</title>
<path fill="#fff2cc" stroke="black" d="M587.5,-213C587.5,-213 503.25,-213 503.25,-213 497.25,-213 491.25,-207 491.25,-201 491.25,-201 491.25,-156 491.25,-156 491.25,-150 497.25,-144 503.25,-144 503.25,-144 587.5,-144 587.5,-144 593.5,-144 599.5,-150 599.5,-156 599.5,-156 599.5,-201 599.5,-201 599.5,-207 593.5,-213 587.5,-213"/>
<text xml:space="preserve" text-anchor="middle" x="545.38" y="-198.55" font-family="Helvetica,sans-Serif" font-size="11.00">StateStore</text>
<text xml:space="preserve" text-anchor="middle" x="545.38" y="-186.55" font-family="Helvetica,sans-Serif" font-size="11.00">(interface)</text>
<text xml:space="preserve" text-anchor="middle" x="545.38" y="-161.55" font-family="Helvetica,sans-Serif" font-size="11.00">PolicyKey,</text>
<text xml:space="preserve" text-anchor="middle" x="545.38" y="-149.55" font-family="Helvetica,sans-Serif" font-size="11.00">per&#45;folder SyncKey</text>
</g>
<!-- eas&#45;&gt;state -->
<g id="edge7" class="edge">
<title>eas&#45;&gt;state</title>
<path fill="none" stroke="black" d="M341.12,-144.28C384.42,-151.57 438.12,-160.61 479.45,-167.57"/>
<polygon fill="black" stroke="black" points="341.92,-140.86 331.48,-142.65 340.76,-147.76 341.92,-140.86"/>
<polygon fill="black" stroke="black" points="478.83,-171.01 489.27,-169.22 479.99,-164.11 478.83,-171.01"/>
<text xml:space="preserve" text-anchor="middle" x="400.5" y="-163.71" font-family="Helvetica,sans-Serif" font-size="10.00">read/write keys</text>
</g>
<!-- transport -->
<g id="node6" class="node">
<title>transport</title>
<path fill="#d9ead3" stroke="black" d="M607.38,-50.5C607.38,-50.5 483.38,-50.5 483.38,-50.5 477.38,-50.5 471.38,-44.5 471.38,-38.5 471.38,-38.5 471.38,-18.5 471.38,-18.5 471.38,-12.5 477.38,-6.5 483.38,-6.5 483.38,-6.5 607.38,-6.5 607.38,-6.5 613.38,-6.5 619.38,-12.5 619.38,-18.5 619.38,-18.5 619.38,-38.5 619.38,-38.5 619.38,-44.5 613.38,-50.5 607.38,-50.5"/>
<text xml:space="preserve" text-anchor="middle" x="545.38" y="-36.05" font-family="Helvetica,sans-Serif" font-size="11.00">*http.Client</text>
<text xml:space="preserve" text-anchor="middle" x="545.38" y="-24.05" font-family="Helvetica,sans-Serif" font-size="11.00">+ optional auth wrap</text>
<text xml:space="preserve" text-anchor="middle" x="545.38" y="-12.05" font-family="Helvetica,sans-Serif" font-size="11.00">(NTLM / SPNEGO / mTLS)</text>
</g>
<!-- eas&#45;&gt;transport -->
<g id="edge4" class="edge">
<title>eas&#45;&gt;transport</title>
<path fill="none" stroke="black" d="M314.36,-84.63C324.72,-76.72 336.04,-69.35 347.62,-64 382.46,-47.92 423.89,-39.11 459.73,-34.28"/>
<polygon fill="black" stroke="black" points="460.17,-37.76 469.66,-33.04 459.3,-30.81 460.17,-37.76"/>
<text xml:space="preserve" text-anchor="middle" x="400.5" y="-77" font-family="Helvetica,sans-Serif" font-size="10.00">HTTP POST</text>
<text xml:space="preserve" text-anchor="middle" x="400.5" y="-65.75" font-family="Helvetica,sans-Serif" font-size="10.00">vnd.ms&#45;sync.wbxml</text>
</g>
<!-- wbxml&#45;&gt;eas -->
<g id="edge3" class="edge">
<title>wbxml&#45;&gt;eas</title>
<path fill="none" stroke="black" stroke-dasharray="5,2" d="M487.11,-105.18C475.93,-106.65 464.29,-108.14 453.38,-109.5 416.43,-114.1 375.38,-118.93 341.07,-122.89"/>
<polygon fill="black" stroke="black" points="340.75,-119.4 331.21,-124.03 341.55,-126.36 340.75,-119.4"/>
<text xml:space="preserve" text-anchor="middle" x="400.5" y="-123.48" font-family="Helvetica,sans-Serif" font-size="10.00">parse WBXML response</text>
</g>
<!-- store -->
<g id="node8" class="node">
<title>store</title>
<path fill="#fff2cc" stroke="black" stroke-dasharray="5,2" d="M851,-200.5C851,-200.5 766,-200.5 766,-200.5 760,-200.5 754,-194.5 754,-188.5 754,-188.5 754,-168.5 754,-168.5 754,-162.5 760,-156.5 766,-156.5 766,-156.5 851,-156.5 851,-156.5 857,-156.5 863,-162.5 863,-168.5 863,-168.5 863,-188.5 863,-188.5 863,-194.5 857,-200.5 851,-200.5"/>
<text xml:space="preserve" text-anchor="middle" x="808.5" y="-186.05" font-family="Helvetica,sans-Serif" font-size="11.00">Your durable</text>
<text xml:space="preserve" text-anchor="middle" x="808.5" y="-174.05" font-family="Helvetica,sans-Serif" font-size="11.00">backend</text>
<text xml:space="preserve" text-anchor="middle" x="808.5" y="-162.05" font-family="Helvetica,sans-Serif" font-size="11.00">(bbolt, SQLite, etc.)</text>
</g>
<!-- state&#45;&gt;store -->
<g id="edge8" class="edge">
<title>state&#45;&gt;store</title>
<path fill="none" stroke="black" stroke-dasharray="5,2" d="M599.85,-178.5C644.76,-178.5 708.63,-178.5 753.65,-178.5"/>
<text xml:space="preserve" text-anchor="middle" x="683.5" y="-180.25" font-family="Helvetica,sans-Serif" font-size="10.00">implementor&#39;s choice</text>
</g>
<!-- easmock -->
<g id="node5" class="node">
<title>easmock</title>
<path fill="#fce5cd" stroke="black" stroke-dasharray="5,2" d="M80,-160C80,-160 28,-160 28,-160 22,-160 16,-154 16,-148 16,-148 16,-115 16,-115 16,-109 22,-103 28,-103 28,-103 80,-103 80,-103 86,-103 92,-109 92,-115 92,-115 92,-148 92,-148 92,-154 86,-160 80,-160"/>
<text xml:space="preserve" text-anchor="middle" x="54" y="-145.55" font-family="Helvetica,sans-Serif" font-size="11.00">easmock</text>
<text xml:space="preserve" text-anchor="middle" x="54" y="-120.55" font-family="Helvetica,sans-Serif" font-size="11.00">hand&#45;written</text>
<text xml:space="preserve" text-anchor="middle" x="54" y="-108.55" font-family="Helvetica,sans-Serif" font-size="11.00">test doubles</text>
</g>
<!-- easmock&#45;&gt;eas -->
<g id="edge9" class="edge">
<title>easmock&#45;&gt;eas</title>
<path fill="none" stroke="black" stroke-dasharray="5,2" d="M92.23,-131.5C118.6,-131.5 154.9,-131.5 187.28,-131.5"/>
<polygon fill="none" stroke="black" points="187.03,-135 197.03,-131.5 187.03,-128 187.03,-135"/>
<text xml:space="preserve" text-anchor="middle" x="149.38" y="-144.5" font-family="Helvetica,sans-Serif" font-size="10.00">satisfies</text>
<text xml:space="preserve" text-anchor="middle" x="149.38" y="-133.25" font-family="Helvetica,sans-Serif" font-size="10.00">for tests</text>
</g>
<!-- server -->
<g id="node7" class="node">
<title>server</title>
<path fill="#d9ead3" stroke="black" d="M857.38,-57C857.38,-57 759.62,-57 759.62,-57 753.62,-57 747.62,-51 747.62,-45 747.62,-45 747.62,-12 747.62,-12 747.62,-6 753.62,0 759.62,0 759.62,0 857.38,0 857.38,0 863.38,0 869.38,-6 869.38,-12 869.38,-12 869.38,-45 869.38,-45 869.38,-51 863.38,-57 857.38,-57"/>
<text xml:space="preserve" text-anchor="middle" x="808.5" y="-42.55" font-family="Helvetica,sans-Serif" font-size="11.00">EAS server</text>
<text xml:space="preserve" text-anchor="middle" x="808.5" y="-17.55" font-family="Helvetica,sans-Serif" font-size="11.00">Z&#45;Push · SOGo ·</text>
<text xml:space="preserve" text-anchor="middle" x="808.5" y="-5.55" font-family="Helvetica,sans-Serif" font-size="11.00">Exchange · Office 365</text>
</g>
<!-- transport&#45;&gt;server -->
<g id="edge5" class="edge">
<title>transport&#45;&gt;server</title>
<path fill="none" stroke="black" d="M619.81,-28.5C656.15,-28.5 699.85,-28.5 735.94,-28.5"/>
<polygon fill="black" stroke="black" points="735.85,-32 745.85,-28.5 735.85,-25 735.85,-32"/>
<text xml:space="preserve" text-anchor="middle" x="683.5" y="-30.25" font-family="Helvetica,sans-Serif" font-size="10.00">HTTPS</text>
</g>
<!-- server&#45;&gt;transport -->
<g id="edge6" class="edge">
<title>server&#45;&gt;transport</title>
<path fill="none" stroke="black" stroke-dasharray="5,2" d="M747.3,-15.52C741.35,-14.59 735.38,-13.81 729.62,-13.25 688.82,-9.29 678.23,-9.85 637.38,-13.25 635.31,-13.42 633.22,-13.62 631.12,-13.83"/>
<polygon fill="black" stroke="black" points="630.79,-10.34 621.25,-14.96 631.59,-17.3 630.79,-10.34"/>
<text xml:space="preserve" text-anchor="middle" x="683.5" y="-15" font-family="Helvetica,sans-Serif" font-size="10.00">200 OK + WBXML</text>
</g>
</g>
</svg>
